<?xml version="1.0" encoding="utf-8"?>
<!-- Generator: Adobe Illustrator 16.0.0, SVG Export Plug-In . SVG Version: 6.00 Build 0)  -->
<!DOCTYPE svg PUBLIC "-//W3C//DTD SVG 1.1//EN" "http://www.w3.org/Graphics/SVG/1.1/DTD/svg11.dtd">
<svg version="1.1" id="Слой_1" xmlns="http://www.w3.org/2000/svg" xmlns:xlink="http://www.w3.org/1999/xlink" x="0px" y="0px"
	 width="236.99951px" height="49px" viewBox="0 0 236.99951 49" enable-background="new 0 0 236.99951 49" xml:space="preserve">
<rect fill="#FFFFFF" width="236.99951" height="49"/>
<g>
	<g>
		<g>
			<path fill="#231F20" d="M51.6377,31.47363h-2.43311V28.7207h-1.3125l-1.80859,2.75293H43.2666l2.19287-3.15332
				c-1.08838-0.41602-1.79297-1.23242-1.79297-2.56152c0-1.71191,1.23242-2.86523,3.47363-2.86523h4.49756V31.47363z
				 M49.20459,26.95996v-2.16113h-1.66455c-0.88037,0-1.40869,0.38379-1.40869,1.08789c0,0.68848,0.54443,1.07324,1.4248,1.07324
				H49.20459z"/>
			<path fill="#231F20" d="M61.84326,24.97461v6.49902h-2.43311v-8.58008h6.25879v2.08105H61.84326z"/>
			<path fill="#231F20" d="M66.65869,27.19922c0-2.46484,1.98486-4.46582,4.65771-4.46582
				c2.65723,0,4.62598,1.96973,4.62598,4.46582c0,2.46582-1.98486,4.46582-4.65771,4.46582
				C68.62744,31.66504,66.65869,29.69629,66.65869,27.19922z M73.5415,27.19922c0-1.26367-0.9126-2.36816-2.25684-2.36816
				c-1.39258,0-2.2251,1.07227-2.2251,2.36816c0,1.26465,0.9126,2.36914,2.25684,2.36914
				C72.70898,29.56836,73.5415,28.49609,73.5415,27.19922z"/>
			<path fill="#231F20" d="M84.48486,24.97461h-2.54492v6.49902H79.4751v-6.49902h-2.54492v-2.08105h7.55469V24.97461z"/>
			<path fill="#231F20" d="M85.47461,27.19922c0-2.46484,1.98486-4.46582,4.65771-4.46582
				c2.65723,0,4.62598,1.96973,4.62598,4.46582c0,2.46582-1.98486,4.46582-4.65771,4.46582
				C87.44336,31.66504,85.47461,29.69629,85.47461,27.19922z M92.35742,27.19922c0-1.26367-0.9126-2.36816-2.25684-2.36816
				c-1.39258,0-2.2251,1.07227-2.2251,2.36816c0,1.26465,0.9126,2.36914,2.25684,2.36914
				C91.5249,29.56836,92.35742,28.49609,92.35742,27.19922z"/>
			<path fill="#231F20" d="M101.62061,22.89355c1.72852,0,2.86523,0.80078,2.86523,2.14551
				c0,1.04004-0.62451,1.61621-1.36084,1.93652c1.04053,0.32031,1.68066,0.95996,1.68066,2.16113
				c0,1.45605-1.21631,2.33691-3.20117,2.33691h-4.68994v-8.58008H101.62061z M101.02832,26.33496
				c0.68848,0,1.02441-0.36816,1.02441-0.86426c0-0.41602-0.28809-0.78418-0.99268-0.78418h-1.74463v1.64844H101.02832z
				 M101.23633,29.56836c0.75244,0,1.10449-0.35156,1.10449-0.86426c0-0.46387-0.33594-0.83203-1.16846-0.83203h-1.85693v1.69629
				H101.23633z"/>
			<path fill="#231F20" d="M119.90967,31.47363h-2.43311v-6.49902h-2.9292v6.49902h-2.43311v-8.58008h7.79541V31.47363z"/>
			<path fill="#231F20" d="M122.06592,27.19922c0-2.46484,1.98438-4.46582,4.6582-4.46582c2.65625,0,4.625,1.96973,4.625,4.46582
				c0,2.46582-1.98438,4.46582-4.65723,4.46582C124.03467,31.66504,122.06592,29.69629,122.06592,27.19922z M128.94873,27.19922
				c0-1.26367-0.91211-2.36816-2.25684-2.36816c-1.39258,0-2.22559,1.07227-2.22559,2.36816
				c0,1.26465,0.91309,2.36914,2.25781,2.36914C128.1167,29.56836,128.94873,28.49609,128.94873,27.19922z"/>
			<path fill="#231F20" d="M133.50537,22.89355h2.46484l2.32129,3.60156l2.35254-3.60156h2.46484v8.58008h-2.46484v-5.1543
				l-2.38477,3.52148l-2.35352-3.47363v5.10645h-2.40039V22.89355z"/>
			<path fill="#231F20" d="M145.26514,27.19922c0-2.46484,1.98535-4.46582,4.6582-4.46582
				c2.65723,0,4.62598,1.96973,4.62598,4.46582c0,2.46582-1.98535,4.46582-4.65723,4.46582
				C147.23389,31.66504,145.26514,29.69629,145.26514,27.19922z M152.14795,27.19922c0-1.26367-0.91211-2.36816-2.25586-2.36816
				c-1.39258,0-2.22559,1.07227-2.22559,2.36816c0,1.26465,0.91309,2.36914,2.25684,2.36914
				C151.31592,29.56836,152.14795,28.49609,152.14795,27.19922z"/>
			<path fill="#231F20" d="M158.93018,25.58301c0,0.89648,0.38379,1.4082,1.18457,1.4082c0.65625,0,1.18359-0.17578,1.66406-0.41602
				v-3.68164h2.44922v8.58008h-2.44922v-2.99316c-0.5918,0.28809-1.45605,0.55957-2.32031,0.55957
				c-1.71289,0-2.99414-0.97559-2.99414-2.76855v-3.37793h2.46582V25.58301z"/>
			<path fill="#231F20" d="M166.80127,22.89355h2.43262v2.83398h1.76172c1.98438,0,3.4248,0.91211,3.4248,2.83301
				c0,1.80859-1.23242,2.91309-3.29785,2.91309h-4.32129V22.89355z M169.23389,27.56738v1.98535h1.53711
				c0.80078,0,1.2002-0.36816,1.2002-1.02441c0-0.59277-0.41602-0.96094-1.21582-0.96094H169.23389z"/>
		</g>
	</g>
	<polyline fill="none" stroke="#231F20" stroke-width="2" stroke-miterlimit="10" points="186.41553,21.48633 191.90576,27.11914 
		186.41553,32.89648 	"/>
</g>
</svg>
