<?xml version="1.0" encoding="utf-8"?>
<!-- Generator: Adobe Illustrator 16.0.0, SVG Export Plug-In . SVG Version: 6.00 Build 0)  -->
<!DOCTYPE svg PUBLIC "-//W3C//DTD SVG 1.1//EN" "http://www.w3.org/Graphics/SVG/1.1/DTD/svg11.dtd">
<svg version="1.1" id="Слой_1" xmlns="http://www.w3.org/2000/svg" xmlns:xlink="http://www.w3.org/1999/xlink" x="0px" y="0px"
	 width="237px" height="49px" viewBox="0 0 237 49" enable-background="new 0 0 237 49" xml:space="preserve">
<rect fill="#7BC1A0" width="237" height="49"/>
<g>
	<g>
		<g>
			<path fill="#FFFFFF" d="M55.159,31.472h-2.465v-3.585h-1.937l-2.401,3.585h-2.881l2.737-4.001
				c-1.424-0.528-2.401-1.665-2.401-3.506c0-2.321,1.601-3.697,4.226-3.697h5.122V31.472z M52.694,25.71v-3.218h-2.449
				c-1.201,0-1.937,0.544-1.937,1.633c0,0.944,0.688,1.585,1.889,1.585H52.694z"/>
			<path fill="#FFFFFF" d="M65.636,24.974v6.498h-2.433v-8.579h6.259v2.081H65.636z"/>
			<path fill="#FFFFFF" d="M70.452,27.198c0-2.465,1.985-4.466,4.658-4.466c2.657,0,4.626,1.969,4.626,4.466
				c0,2.465-1.985,4.466-4.658,4.466C72.42,31.664,70.452,29.695,70.452,27.198z M77.334,27.198c0-1.265-0.913-2.369-2.257-2.369
				c-1.393,0-2.225,1.072-2.225,2.369c0,1.265,0.913,2.369,2.257,2.369C76.502,29.567,77.334,28.495,77.334,27.198z"/>
			<path fill="#FFFFFF" d="M88.278,24.974h-2.545v6.498h-2.465v-6.498h-2.545v-2.081h7.555V24.974z"/>
			<path fill="#FFFFFF" d="M89.268,27.198c0-2.465,1.985-4.466,4.658-4.466c2.657,0,4.626,1.969,4.626,4.466
				c0,2.465-1.985,4.466-4.658,4.466C91.236,31.664,89.268,29.695,89.268,27.198z M96.15,27.198c0-1.265-0.913-2.369-2.257-2.369
				c-1.393,0-2.225,1.072-2.225,2.369c0,1.265,0.913,2.369,2.257,2.369C95.318,29.567,96.15,28.495,96.15,27.198z"/>
			<path fill="#FFFFFF" d="M105.414,22.893c1.729,0,2.865,0.8,2.865,2.145c0,1.041-0.625,1.617-1.361,1.937
				c1.041,0.32,1.681,0.961,1.681,2.161c0,1.457-1.216,2.337-3.201,2.337h-4.69v-8.579H105.414z M104.821,26.334
				c0.688,0,1.024-0.368,1.024-0.864c0-0.416-0.288-0.784-0.993-0.784h-1.745v1.648H104.821z M105.029,29.567
				c0.752,0,1.104-0.353,1.104-0.864c0-0.465-0.336-0.833-1.168-0.833h-1.857v1.697H105.029z"/>
			<path fill="#FFFFFF" d="M123.703,31.472h-2.433v-6.498h-2.93v6.498h-2.433v-8.579h7.795V31.472z"/>
			<path fill="#FFFFFF" d="M125.859,27.198c0-2.465,1.985-4.466,4.657-4.466c2.658,0,4.627,1.969,4.627,4.466
				c0,2.465-1.985,4.466-4.658,4.466C127.828,31.664,125.859,29.695,125.859,27.198z M132.742,27.198
				c0-1.265-0.913-2.369-2.257-2.369c-1.393,0-2.225,1.072-2.225,2.369c0,1.265,0.912,2.369,2.256,2.369
				C131.909,29.567,132.742,28.495,132.742,27.198z"/>
			<path fill="#FFFFFF" d="M137.298,22.893h2.465l2.321,3.602l2.354-3.602h2.465v8.579h-2.465v-5.154l-2.386,3.521l-2.353-3.473
				v5.105h-2.401V22.893z"/>
			<path fill="#FFFFFF" d="M149.059,27.198c0-2.465,1.984-4.466,4.657-4.466c2.657,0,4.626,1.969,4.626,4.466
				c0,2.465-1.984,4.466-4.658,4.466C151.028,31.664,149.059,29.695,149.059,27.198z M155.942,27.198
				c0-1.265-0.913-2.369-2.258-2.369c-1.393,0-2.225,1.072-2.225,2.369c0,1.265,0.912,2.369,2.257,2.369
				C155.109,29.567,155.942,28.495,155.942,27.198z"/>
			<path fill="#FFFFFF" d="M162.723,25.581c0,0.896,0.384,1.409,1.185,1.409c0.656,0,1.185-0.176,1.665-0.416v-3.682h2.448v8.579
				h-2.448v-2.993c-0.593,0.288-1.457,0.561-2.322,0.561c-1.712,0-2.992-0.977-2.992-2.77v-3.377h2.465V25.581z"/>
			<path fill="#FFFFFF" d="M170.594,22.893h2.434v2.833h1.76c1.985,0,3.426,0.912,3.426,2.833c0,1.809-1.232,2.913-3.297,2.913
				h-4.322V22.893z M173.028,27.566v1.984h1.536c0.8,0,1.2-0.368,1.2-1.024c0-0.592-0.416-0.96-1.217-0.96H173.028z"/>
		</g>
	</g>
	<polyline fill="none" stroke="#FFFFFF" stroke-width="2" stroke-miterlimit="10" points="183.417,21.486 188.905,27.119 
		183.417,32.897 	"/>
</g>
</svg>
