<?xml version="1.0" encoding="utf-8"?>
<!-- Generator: Adobe Illustrator 16.0.0, SVG Export Plug-In . SVG Version: 6.00 Build 0)  -->
<!DOCTYPE svg PUBLIC "-//W3C//DTD SVG 1.1//EN" "http://www.w3.org/Graphics/SVG/1.1/DTD/svg11.dtd">
<svg version="1.1" id="Слой_1" xmlns="http://www.w3.org/2000/svg" xmlns:xlink="http://www.w3.org/1999/xlink" x="0px" y="0px"
	 width="34.47px" height="34.471px" viewBox="0 0 34.47 34.471" enable-background="new 0 0 34.47 34.471" xml:space="preserve">
<path fill="#D5D5D4" d="M17.233,0.25c-9.381,0-16.984,7.604-16.984,16.985c0,9.381,7.604,16.986,16.984,16.986
	c9.381,0,16.987-7.604,16.987-16.986C34.22,7.854,26.615,0.25,17.233,0.25z M22.972,10.583v0.476l-2.561,0.001
	c-0.559,0.002-0.836,0.112-0.99,0.206c-0.154,0.101-0.205,0.173-0.279,0.326c-0.043,0.092-0.074,0.211-0.094,0.33v0.001
	c-0.027,0.162-0.029,0.325-0.029,0.468v1.931h3.869l-0.629,4.794h-3.24v8.83h-3.737h-1.189v-8.83H10.81v-4.794h3.283v-2.307
	c0-0.804,0.113-1.565,0.359-2.261c0.244-0.697,0.627-1.329,1.145-1.842c1-0.986,2.402-1.444,3.905-1.443h0.02
	c0.93,0,1.73,0.046,2.348,0.09l1.104,0.078V10.583z"/>
</svg>
