<?xml version="1.0" encoding="utf-8"?>
<!-- Generator: Adobe Illustrator 16.0.0, SVG Export Plug-In . SVG Version: 6.00 Build 0)  -->
<!DOCTYPE svg PUBLIC "-//W3C//DTD SVG 1.1//EN" "http://www.w3.org/Graphics/SVG/1.1/DTD/svg11.dtd">
<svg version="1.1" id="Слой_1" xmlns="http://www.w3.org/2000/svg" xmlns:xlink="http://www.w3.org/1999/xlink" x="0px" y="0px"
	 width="93.689px" height="68.881px" viewBox="0 0 93.689 68.881" enable-background="new 0 0 93.689 68.881" xml:space="preserve">
<g>
	<path fill="#010202" d="M72.822,23.43c-0.178,0-0.354-0.055-0.502-0.162c-0.262-0.189-0.393-0.514-0.338-0.834l0.637-3.711
		l-2.697-2.629c-0.232-0.227-0.316-0.564-0.215-0.871c0.1-0.311,0.367-0.535,0.688-0.582l3.727-0.539l1.666-3.377
		c0.287-0.582,1.242-0.582,1.527,0l1.668,3.377l3.725,0.539c0.322,0.047,0.588,0.271,0.689,0.582c0.1,0.307,0.018,0.645-0.217,0.871
		l-2.697,2.629l0.639,3.711c0.053,0.32-0.078,0.645-0.34,0.834c-0.26,0.191-0.611,0.213-0.896,0.064l-3.336-1.752l-3.332,1.752
		C73.092,23.398,72.957,23.43,72.822,23.43z"/>
	<path fill="#010202" d="M76.4,0c-8.422,0-15.643,6.219-17.035,14.402H0v54.479h79.256V34.334c8.201-1.379,14.434-8.6,14.434-17.041
		C93.689,7.76,85.934,0,76.4,0z M73.475,34.326v28.77H5.781V22.461l33.848,19.574l23.77-13.379
		C66.018,31.65,69.578,33.654,73.475,34.326z M39.629,35.246L13.117,20.184h46.246c0.207,1.217,0.541,2.402,1.006,3.547
		L39.629,35.246z M64.891,17.293c0-6.346,5.162-11.508,11.508-11.508s11.508,5.162,11.508,11.508
		c0,6.348-5.162,11.508-11.508,11.508S64.891,23.641,64.891,17.293z"/>
</g>
</svg>
