<?xml version="1.0" encoding="utf-8"?>
<!-- Generator: Adobe Illustrator 16.0.0, SVG Export Plug-In . SVG Version: 6.00 Build 0)  -->
<!DOCTYPE svg PUBLIC "-//W3C//DTD SVG 1.1//EN" "http://www.w3.org/Graphics/SVG/1.1/DTD/svg11.dtd">
<svg version="1.1" id="Слой_1" xmlns="http://www.w3.org/2000/svg" xmlns:xlink="http://www.w3.org/1999/xlink" x="0px" y="0px"
	 width="54.001px" height="91.283px" viewBox="0 0 54.001 91.283" enable-background="new 0 0 54.001 91.283" xml:space="preserve">
<g>
	<path fill="#010202" d="M27.366,26.66c0,0-4.125,0.148-6.99-2.045c-3.207-2.35-4.344-6.455-4.344-9.256
		c0-7.396,6.58-11.336,11.335-11.336c8.167,0,10.327,5.768,10.327,8.816c0,2.391-1.352,6.803-3.275,6.803
		c-1.221,0-1.762-0.285-1.762-1.795l0.752-9.541h-3.021l-0.263,1.049c-0.797-0.953-1.869-1.553-3.264-1.553
		c-4.094,0-6.779,3.695-6.906,7.053c-0.104,2.768,0.586,8.701,6.906,8.063c1.045-0.105,2.182-0.748,3.109-1.846
		c0.88,1.346,2.41,2.096,4.446,2.096c5.087,0,6.802-7.088,6.802-10.328c0-4.959-3.689-12.34-13.854-12.34
		c-6.232,0-14.861,5.162-14.861,14.859c0,3.799,1.521,8.971,5.784,12.1c3.386,2.48,9.078,2.732,9.078,2.732L27.366,26.66z
		 M26.862,19.564c-1.238,0.1-3.525-0.174-3.525-4.205c0-2.225,1.465-4.131,3.48-4.131c1.111,0,2.793,0.227,2.793,4.131
		C29.61,17.816,28.368,19.439,26.862,19.564z"/>
	<path fill="#010202" d="M27.366,26.66l-0.013-0.5c0,0-0.05,0-0.154,0c-0.753,0.008-4.174-0.131-6.521-1.941l-0.008-0.006
		c-1.514-1.109-2.549-2.643-3.207-4.246s-0.934-3.273-0.932-4.607c0.002-3.547,1.563-6.227,3.709-8.063
		c2.143-1.83,4.885-2.777,7.126-2.773c3.968,0.006,6.376,1.381,7.847,3.09c1.469,1.709,1.982,3.814,1.98,5.227
		c0.003,1.105-0.326,2.775-0.879,4.107c-0.273,0.666-0.605,1.25-0.948,1.637c-0.349,0.395-0.671,0.561-0.948,0.557
		c-0.286,0.002-0.516-0.018-0.68-0.055c-0.252-0.064-0.326-0.123-0.416-0.262c-0.088-0.143-0.168-0.453-0.166-0.977h-0.5
		l0.498,0.039L33.95,7.805h-3.951l-0.358,1.43l0.485,0.121l0.383-0.32c-0.865-1.047-2.105-1.738-3.646-1.732
		c-2.201-0.002-4.039,1.002-5.314,2.434c-1.277,1.436-2.021,3.295-2.092,5.1c-0.006,0.16-0.01,0.332-0.01,0.51
		c0.003,1.432,0.212,3.404,1.131,5.086c0.461,0.84,1.107,1.605,1.996,2.156s2.009,0.877,3.375,0.877
		c0.308,0,0.629-0.016,0.963-0.049h0.002c1.211-0.127,2.445-0.846,3.44-2.021l-0.382-0.322l-0.418,0.273
		c0.979,1.508,2.711,2.33,4.864,2.322c1.39,0.002,2.577-0.494,3.524-1.271c1.426-1.168,2.352-2.934,2.941-4.709
		c0.588-1.777,0.836-3.57,0.836-4.848c-0.002-2.6-0.957-5.791-3.241-8.363C36.196,1.904,32.569-0.006,27.366,0
		c-3.252,0.002-7.059,1.332-10.092,3.912c-3.03,2.578-5.271,6.445-5.27,11.447c0.004,3.92,1.555,9.238,5.988,12.502
		c1.796,1.311,4.121,2,6.006,2.383c1.884,0.381,3.328,0.445,3.346,0.445l0.523,0.023l-0.002-4.566l-0.513,0.014L27.366,26.66h-0.5
		l0.001,3.531h0.5l0.022-0.5c0,0-0.08-0.004-0.238-0.016c-1.096-0.07-5.781-0.563-8.566-2.621c-4.094-2.994-5.582-8.018-5.58-11.695
		c0.004-4.695,2.076-8.258,4.918-10.686c2.84-2.426,6.463-3.678,9.443-3.674c4.961,0.004,8.261,1.783,10.365,4.143
		c2.102,2.357,2.99,5.338,2.988,7.697c0.004,1.537-0.42,4.076-1.442,6.158c-0.509,1.045-1.165,1.971-1.967,2.625
		c-0.804,0.652-1.739,1.043-2.893,1.045c-1.92-0.008-3.248-0.686-4.028-1.869l-0.367-0.563L29.59,20.75
		c-0.858,1.018-1.899,1.584-2.778,1.67h0.002c-0.304,0.029-0.592,0.045-0.865,0.045c-1.211-0.002-2.128-0.281-2.848-0.727
		c-1.076-0.668-1.74-1.738-2.139-2.926c-0.398-1.186-0.516-2.469-0.516-3.467c0-0.166,0.004-0.324,0.009-0.473
		c0.057-1.553,0.719-3.217,1.839-4.471c1.123-1.254,2.676-2.098,4.568-2.1c1.246,0.006,2.152,0.514,2.879,1.373l0.631,0.754
		l0.406-1.623h2.09l-0.711,9.02v0.021c0,0.406,0.035,0.75,0.123,1.057c0.124,0.457,0.431,0.84,0.831,1.02
		c0.396,0.184,0.822,0.215,1.308,0.217c0.684-0.002,1.252-0.387,1.699-0.895c0.674-0.771,1.171-1.891,1.525-3.059
		c0.352-1.17,0.549-2.383,0.551-3.348c-0.002-1.637-0.568-3.939-2.221-5.877s-4.407-3.445-8.606-3.439
		c-2.513,0.004-5.438,1.025-7.774,3.014c-2.334,1.984-4.064,4.971-4.061,8.822c0,1.467,0.295,3.248,1.006,4.986
		c0.713,1.736,1.848,3.432,3.542,4.672l0.296-0.402l-0.305,0.396c2.702,2.051,6.282,2.141,7.128,2.148
		c0.112,0,0.176-0.002,0.179-0.002L27.366,26.66h-0.5H27.366z M26.862,19.564l-0.038-0.498c-0.104,0.008-0.217,0.014-0.333,0.012
		c-0.57,0-1.211-0.125-1.711-0.602c-0.499-0.475-0.941-1.369-0.943-3.117c-0.001-1.004,0.332-1.928,0.871-2.584
		c0.543-0.656,1.264-1.047,2.109-1.049c0.262,0,0.53,0.016,0.779,0.082c0.372,0.104,0.695,0.281,0.99,0.777
		c0.291,0.5,0.525,1.361,0.523,2.773c0,1.145-0.291,2.066-0.723,2.693c-0.434,0.631-0.985,0.965-1.566,1.014l0.082-0.008
		l-0.079,0.008L26.862,19.564l0.041,0.498c0.925-0.076,1.747-0.617,2.311-1.443c0.566-0.83,0.896-1.949,0.896-3.26
		c0-2.016-0.428-3.199-1.131-3.889c-0.348-0.34-0.752-0.531-1.13-0.631c-0.38-0.098-0.737-0.111-1.032-0.113
		c-1.17,0-2.188,0.563-2.883,1.416c-0.697,0.854-1.098,1.994-1.098,3.217c-0.002,1.906,0.496,3.121,1.255,3.842
		s1.694,0.879,2.399,0.877c0.146,0,0.283-0.006,0.409-0.016l-0.083,0.008l0.086-0.008L26.862,19.564z"/>
	<path fill="#010202" d="M37.948,51.229L24.333,64.953l-6.281-6.387c-1.215-1.209-3.169-1.213-4.385,0
		c-1.205,1.211-1.215,3.174,0,4.385l8.465,8.568c0.455,0.459,1.02,0.742,1.612,0.854c0.979,0.189,2.035-0.096,2.79-0.854
		l15.799-15.902c1.216-1.213,1.216-3.172,0-4.385C41.124,50.023,39.157,50.016,37.948,51.229z"/>
	<polygon fill="#010202" points="51.001,28.951 51.001,25.949 0,25.949 0,91.283 54.001,91.283 54.001,25.949 51.001,25.949 
		51.001,28.951 48.001,28.951 48.001,85.283 6,85.283 6,31.951 51.001,31.951 51.001,28.951 48.001,28.951 	"/>
</g>
</svg>
