<?xml version="1.0" encoding="utf-8"?>
<!-- Generator: Adobe Illustrator 16.0.0, SVG Export Plug-In . SVG Version: 6.00 Build 0)  -->
<!DOCTYPE svg PUBLIC "-//W3C//DTD SVG 1.1//EN" "http://www.w3.org/Graphics/SVG/1.1/DTD/svg11.dtd">
<svg version="1.1" id="Слой_1" xmlns="http://www.w3.org/2000/svg" xmlns:xlink="http://www.w3.org/1999/xlink" x="0px" y="0px"
	 width="79.883px" height="80.025px" viewBox="0 0 79.883 80.025" enable-background="new 0 0 79.883 80.025" xml:space="preserve">
<g>
	<path fill="#010202" d="M40.184,15.488v2.834c1.068,0.002,2.01,0.424,2.714,1.125c0.699,0.705,1.123,1.646,1.124,2.717
		c-0.001,1.066-0.424,2.008-1.123,2.713c-0.704,0.697-1.646,1.121-2.715,1.123c-1.068-0.002-2.011-0.426-2.715-1.123
		c-0.698-0.705-1.122-1.646-1.123-2.713c0.001-1.07,0.426-2.012,1.125-2.717c0.703-0.701,1.645-1.123,2.713-1.125V15.488v-2.836
		c-2.617-0.002-5.012,1.07-6.724,2.787c-1.716,1.713-2.786,4.107-2.784,6.725c-0.002,2.615,1.068,5.01,2.785,6.721
		c1.711,1.717,4.106,2.787,6.723,2.785c2.617,0.002,5.012-1.068,6.723-2.785c1.717-1.711,2.787-4.105,2.785-6.721
		c0.002-2.617-1.068-5.012-2.783-6.725c-1.712-1.717-4.107-2.789-6.725-2.787V15.488z"/>
	<path fill="#010202" d="M7.327,57.564l-2.589,1.133c2.749,6.322,7.588,11.652,13.706,15.4c6.121,3.748,13.538,5.926,21.512,5.928
		c7.974-0.002,15.392-2.18,21.512-5.928c6.116-3.748,10.956-9.078,13.705-15.4l1.724-3.967H3.014l1.724,3.967L7.327,57.564V60.4
		h65.256v-2.836l-2.588-1.133c-2.234,5.145-6.25,9.629-11.47,12.826c-5.219,3.197-11.624,5.098-18.57,5.096
		c-6.946,0.002-13.353-1.898-18.57-5.096c-5.221-3.197-9.235-7.682-11.471-12.826L7.327,57.564V60.4V57.564z"/>
	<path fill="#010202" d="M77.048,39.861h-2.835c-0.002,9.451-3.822,17.98-10.014,24.176c-6.197,6.191-14.727,10.014-24.178,10.016
		c-9.45-0.002-17.98-3.824-24.176-10.016C9.654,57.842,5.833,49.313,5.832,39.861c0.001-9.451,3.822-17.98,10.015-24.178
		C22.042,9.492,30.572,5.672,40.022,5.67c9.451,0.002,17.98,3.822,24.178,10.014c6.191,6.197,10.012,14.727,10.014,24.178H77.048
		h2.835c0.002-11-4.466-20.982-11.676-28.188C61.004,4.467,51.02-0.002,40.022,0c-10.998-0.002-20.98,4.467-28.186,11.674
		C4.627,18.879,0.161,28.861,0.162,39.861c-0.001,10.998,4.466,20.98,11.675,28.186c7.205,7.209,17.188,11.676,28.186,11.674
		c10.998,0.002,20.982-4.465,28.186-11.674c7.21-7.205,11.678-17.188,11.676-28.186H77.048z"/>
	<polygon fill="#010202" points="39.631,52.922 41.831,53.783 49.304,34.74 30.028,34.74 39.622,59.414 41.831,53.783 
		39.631,52.922 41.833,52.064 36.934,39.465 42.375,39.465 37.432,52.057 39.631,52.922 41.833,52.064 	"/>
	<polygon fill="#010202" points="51.202,37.102 51.202,34.268 25.282,34.268 25.282,59.975 54.038,59.975 54.038,34.268 
		51.202,34.268 51.202,37.102 48.368,37.102 48.368,54.303 30.952,54.303 30.952,39.938 51.202,39.938 51.202,37.102 48.368,37.102 
			"/>
</g>
</svg>
