<?xml version="1.0" encoding="utf-8"?>
<!-- Generator: Adobe Illustrator 16.0.0, SVG Export Plug-In . SVG Version: 6.00 Build 0)  -->
<!DOCTYPE svg PUBLIC "-//W3C//DTD SVG 1.1//EN" "http://www.w3.org/Graphics/SVG/1.1/DTD/svg11.dtd">
<svg version="1.1" id="Слой_1" xmlns="http://www.w3.org/2000/svg" xmlns:xlink="http://www.w3.org/1999/xlink" x="0px" y="0px"
	 width="93.50049px" height="29.54395px" viewBox="0 0 93.50049 29.54395" enable-background="new 0 0 93.50049 29.54395"
	 xml:space="preserve">
<g>
	<g>
		<g>
			<path fill="#7BC1A0" d="M0.6582,0.80469h9.34766v11.20459H7.54102V3.02979H3.12305v8.97949H0.6582V0.80469z"/>
			<path fill="#7BC1A0" d="M12.01807,7.73535c0-2.46484,1.98486-4.46582,4.65771-4.46582c2.65723,0,4.62598,1.96924,4.62598,4.46582
				c0,2.46533-1.98486,4.46582-4.65771,4.46582C13.98682,12.20117,12.01807,10.23242,12.01807,7.73535z M18.90088,7.73535
				c0-1.26416-0.9126-2.36865-2.25684-2.36865c-1.39258,0-2.2251,1.07227-2.2251,2.36865c0,1.26465,0.9126,2.36914,2.25684,2.36914
				C18.06836,10.10449,18.90088,9.03223,18.90088,7.73535z"/>
			<path fill="#7BC1A0" d="M24.17871,12.00928l-0.17627,2.0166h-2.04883V9.92822h0.92822
				c0.7207-1.53662,0.83252-3.69727,0.83252-5.76221V3.42969h7.01074v6.49854h1.16846l-0.28809,4.09766h-2.04883v-2.0166H24.17871z
				 M28.29199,9.92822V5.51074h-2.28857v0.19189c-0.01611,1.45654-0.1123,2.96143-0.64063,4.22559H28.29199z"/>
			<path fill="#7BC1A0" d="M33.21729,3.42969h2.43311v1.23242c0.59229-0.80029,1.40869-1.39258,2.67285-1.39258
				c2.00098,0,3.90576,1.56885,3.90576,4.46582c0,2.86523-1.87256,4.43408-3.90576,4.43408
				c-1.29639,0-2.09668-0.59229-2.67285-1.28076v3.68164h-2.43311V3.42969z M39.7959,7.70361
				c0-1.4248-0.96045-2.36914-2.09668-2.36914c-1.13672,0-2.08105,0.94434-2.08105,2.40088
				c0,1.4248,0.94434,2.36914,2.08105,2.36914C38.83545,10.10449,39.7959,9.17627,39.7959,7.70361z"/>
			<path fill="#7BC1A0" d="M43.60107,7.73535c0-2.46484,1.98486-4.46582,4.65771-4.46582c2.65723,0,4.62598,1.96924,4.62598,4.46582
				c0,2.46533-1.98486,4.46582-4.65771,4.46582C45.56982,12.20117,43.60107,10.23242,43.60107,7.73535z M50.48389,7.73535
				c0-1.26416-0.9126-2.36865-2.25684-2.36865c-1.39258,0-2.2251,1.07227-2.2251,2.36865c0,1.26465,0.9126,2.36914,2.25684,2.36914
				C49.65137,10.10449,50.48389,9.03223,50.48389,7.73535z"/>
			<path fill="#7BC1A0" d="M54.40088,7.0791c0-2.57666,0.38428-5.31396,3.60156-5.90625l4.59375-0.84814l0.38428,1.92041
				l-4.70605,0.92871c-1.58447,0.31982-2.0166,1.2002-2.08057,2.0166C56.51416,4.63037,57.5542,3.75,59.31494,3.75
				c2.17725,0,4.06592,1.76074,4.06592,4.11377c0,2.36865-1.88867,4.3374-4.49805,4.3374
				C55.98584,12.20117,54.40088,10.37646,54.40088,7.0791z M60.97949,7.89551c0-1.23242-0.896-2.24072-2.09668-2.24072
				c-1.23242,0-2.06494,0.99219-2.06494,2.24072c0,1.2168,0.89648,2.20898,2.09717,2.20898
				C60.16357,10.10449,60.97949,9.12793,60.97949,7.89551z"/>
			<path fill="#7BC1A0" d="M72.96436,12.00928h-2.43262V8.72803h-2.99365v3.28125h-2.43311V3.42969h2.43311v3.29736h2.99365V3.42969
				h2.43262V12.00928z"/>
			<path fill="#7BC1A0" d="M74.72119,7.73535c0-2.44873,1.74414-4.46582,4.24219-4.46582c2.86523,0,4.17773,2.2251,4.17773,4.6582
				c0,0.19189-0.0166,0.41602-0.0332,0.64014h-5.96973c0.23926,1.10449,1.00879,1.68066,2.09668,1.68066
				c0.81641,0,1.4082-0.25586,2.08105-0.88037l1.39258,1.23242c-0.7998,0.99268-1.95313,1.60059-3.50488,1.60059
				C76.62549,12.20117,74.72119,10.39258,74.72119,7.73535z M80.77197,7.04736c-0.14453-1.08838-0.78516-1.82471-1.80859-1.82471
				c-1.00879,0-1.66504,0.72021-1.85742,1.82471H80.77197z"/>
			<path fill="#7BC1A0" d="M84.52881,7.73535c0-2.44873,1.74512-4.46582,4.24121-4.46582c2.86523,0,4.17773,2.2251,4.17773,4.6582
				c0,0.19189-0.01563,0.41602-0.03125,0.64014h-5.9707c0.24023,1.10449,1.00781,1.68066,2.09668,1.68066
				c0.81641,0,1.40918-0.25586,2.08105-0.88037l1.39258,1.23242c-0.80078,0.99268-1.95313,1.60059-3.50586,1.60059
				C86.43408,12.20117,84.52881,10.39258,84.52881,7.73535z M90.57861,7.04736c-0.14355-1.08838-0.7832-1.82471-1.80859-1.82471
				c-1.00781,0-1.66406,0.72021-1.85645,1.82471H90.57861z"/>
		</g>
	</g>
	<polyline fill="none" stroke="#7BC1A0" stroke-width="2" stroke-miterlimit="10" points="49.99951,22.05127 44.3667,27.54102 
		38.5874,22.05127 	"/>
</g>
</svg>
