<?xml version="1.0" encoding="utf-8"?>
<!-- Generator: Adobe Illustrator 16.0.0, SVG Export Plug-In . SVG Version: 6.00 Build 0)  -->
<!DOCTYPE svg PUBLIC "-//W3C//DTD SVG 1.1//EN" "http://www.w3.org/Graphics/SVG/1.1/DTD/svg11.dtd">
<svg version="1.1" id="Слой_1" xmlns="http://www.w3.org/2000/svg" xmlns:xlink="http://www.w3.org/1999/xlink" x="0px" y="0px"
	 width="34.47px" height="34.471px" viewBox="0 0 34.47 34.471" enable-background="new 0 0 34.47 34.471" xml:space="preserve">
<path fill-rule="evenodd" clip-rule="evenodd" fill="#D5D5D4" d="M17.234,0C7.716,0,0,7.717,0,17.235s7.716,17.235,17.234,17.235
	c9.519,0,17.236-7.717,17.236-17.235S26.753,0,17.234,0z M25.273,20.371c0.328,0.359,1.375,1.297,2.021,2.02
	c0.646,0.725,1.285,1.298,1.285,1.836c0,0.539-0.232,1.07-1.102,1.07c-0.871,0-2.621,0-3.219,0s-1.24-0.231-2.289-1.254
	c-1.049-1.023-1.615-1.836-2.203-1.836s-0.92,0.792-0.92,1.836c0,1.045-0.376,1.286-1.834,1.286s-3.917-0.264-6.243-2.571
	c-2.325-2.309-4.887-7.706-5.507-8.813c-0.622-1.106-0.299-1.649,0.573-1.649c0,0,2.527-0.002,3.281-0.002
	c0.753,0,0.854,0.691,1.285,1.468c0.432,0.777,1.269,2.484,1.837,3.305c0.566,0.82,0.837,1.246,1.356,1.237
	c0.521-0.007,0.662-1.23,0.662-1.972c0-0.74,0.078-2.291-0.367-2.938c-0.443-0.646-1.101-0.455-1.101-0.733
	c0-0.279,0.577-0.917,1.468-0.917c0.751,0,2.098,0,3.121,0s1.468,0.505,1.468,1.1c0,0.594,0,3.633,0,4.223s0.037,1.103,0.367,1.103
	c0.332,0,0.771-0.27,1.654-1.471c0.881-1.199,1.506-2.612,1.836-3.304c0.328-0.693,0.369-1.101,0.918-1.101c0.465,0,3.484,0,4.039,0
	s0.918,0.23,0.918,0.733c0,0.502-0.322,1.105-1.102,2.203s-2.117,2.991-2.572,3.672C24.453,19.584,24.949,20.014,25.273,20.371z"/>
</svg>
